<mxfile host="Electron" modified="2024-05-16T07:27:44.627Z" agent="Mozilla/5.0 (Macintosh; Intel Mac OS X 10_15_7) AppleWebKit/537.36 (KHTML, like Gecko) draw.io/22.1.18 Chrome/120.0.6099.199 Electron/28.1.2 Safari/537.36" etag="Ig7qxBmaUgERu-prMSy9" version="22.1.18" type="device">
  <diagram name="第 1 页" id="YxT7qkMeVRCcN431FVAs">
    <mxGraphModel dx="852" dy="558" grid="1" gridSize="10" guides="1" tooltips="1" connect="1" arrows="1" fold="1" page="1" pageScale="1" pageWidth="827" pageHeight="1169" math="0" shadow="0">
      <root>
        <mxCell id="0" />
        <mxCell id="1" parent="0" />
        <mxCell id="BzE5XlcetlsbnxCQ8cyy-1" value="" style="endArrow=none;html=1;rounded=0;strokeWidth=2;strokeColor=#90C9E6;" parent="1" edge="1">
          <mxGeometry width="50" height="50" relative="1" as="geometry">
            <mxPoint x="296" y="330" as="sourcePoint" />
            <mxPoint x="296" y="153.5" as="targetPoint" />
          </mxGeometry>
        </mxCell>
        <mxCell id="BzE5XlcetlsbnxCQ8cyy-2" value="" style="endArrow=none;html=1;rounded=0;strokeWidth=2;strokeColor=#90C9E6;" parent="1" edge="1">
          <mxGeometry width="50" height="50" relative="1" as="geometry">
            <mxPoint x="419" y="330" as="sourcePoint" />
            <mxPoint x="419" y="151.5" as="targetPoint" />
          </mxGeometry>
        </mxCell>
        <mxCell id="BzE5XlcetlsbnxCQ8cyy-3" value="&lt;font&gt;&lt;b style=&quot;&quot;&gt;P0&lt;/b&gt;&lt;/font&gt;" style="text;html=1;align=center;verticalAlign=middle;whiteSpace=wrap;rounded=0;fontFamily=Helvetica;" parent="1" vertex="1">
          <mxGeometry x="260" y="127.5" width="73" height="30" as="geometry" />
        </mxCell>
        <mxCell id="BzE5XlcetlsbnxCQ8cyy-4" value="&lt;font color=&quot;#990000&quot; face=&quot;Verdana&quot;&gt;x=0&lt;/font&gt;" style="text;html=1;align=center;verticalAlign=middle;whiteSpace=wrap;rounded=0;" parent="1" vertex="1">
          <mxGeometry x="405" y="157.5" width="60" height="30" as="geometry" />
        </mxCell>
        <mxCell id="BzE5XlcetlsbnxCQ8cyy-5" value="&lt;font&gt;&lt;b style=&quot;&quot;&gt;P1&lt;/b&gt;&lt;/font&gt;" style="text;html=1;align=center;verticalAlign=middle;whiteSpace=wrap;rounded=0;fontFamily=Helvetica;" parent="1" vertex="1">
          <mxGeometry x="383" y="127.5" width="73" height="30" as="geometry" />
        </mxCell>
        <mxCell id="BzE5XlcetlsbnxCQ8cyy-6" value="&lt;font face=&quot;Verdana&quot;&gt;&lt;b style=&quot;&quot;&gt;（a&lt;/b&gt;&lt;/font&gt;&lt;b style=&quot;font-family: Verdana; background-color: initial;&quot;&gt;）&lt;/b&gt;" style="text;html=1;align=center;verticalAlign=middle;whiteSpace=wrap;rounded=0;" parent="1" vertex="1">
          <mxGeometry x="104" y="175.5" width="53" height="30" as="geometry" />
        </mxCell>
        <mxCell id="BzE5XlcetlsbnxCQ8cyy-7" value="&lt;font face=&quot;Verdana&quot;&gt;&lt;b style=&quot;&quot;&gt;（b&lt;/b&gt;&lt;/font&gt;&lt;b style=&quot;font-family: Verdana; background-color: initial;&quot;&gt;）&lt;/b&gt;" style="text;html=1;align=center;verticalAlign=middle;whiteSpace=wrap;rounded=0;" parent="1" vertex="1">
          <mxGeometry x="104" y="278.5" width="53" height="30" as="geometry" />
        </mxCell>
        <mxCell id="BzE5XlcetlsbnxCQ8cyy-9" value="&lt;b style=&quot;&quot;&gt;&lt;font face=&quot;Courier New&quot;&gt;Put(x=1,P1)&lt;/font&gt;&lt;/b&gt;" style="text;html=1;align=center;verticalAlign=middle;whiteSpace=wrap;rounded=0;" parent="1" vertex="1">
          <mxGeometry x="207" y="165.5" width="81" height="30" as="geometry" />
        </mxCell>
        <mxCell id="BzE5XlcetlsbnxCQ8cyy-10" value="&lt;b style=&quot;&quot;&gt;&lt;font face=&quot;Courier New&quot;&gt;Put(x=2,P1)&lt;/font&gt;&lt;/b&gt;" style="text;html=1;align=center;verticalAlign=middle;whiteSpace=wrap;rounded=0;" parent="1" vertex="1">
          <mxGeometry x="207" y="185.5" width="81" height="30" as="geometry" />
        </mxCell>
        <mxCell id="BzE5XlcetlsbnxCQ8cyy-11" value="&lt;font face=&quot;Verdana&quot;&gt;x=2&lt;/font&gt;" style="text;html=1;align=center;verticalAlign=middle;whiteSpace=wrap;rounded=0;" parent="1" vertex="1">
          <mxGeometry x="420" y="195.5" width="30" height="30" as="geometry" />
        </mxCell>
        <mxCell id="BzE5XlcetlsbnxCQ8cyy-12" value="&lt;font face=&quot;Verdana&quot;&gt;x=1&lt;/font&gt;" style="text;html=1;align=center;verticalAlign=middle;whiteSpace=wrap;rounded=0;" parent="1" vertex="1">
          <mxGeometry x="420" y="215.5" width="30" height="30" as="geometry" />
        </mxCell>
        <mxCell id="BzE5XlcetlsbnxCQ8cyy-13" value="" style="endArrow=classic;html=1;rounded=0;" parent="1" edge="1">
          <mxGeometry width="50" height="50" relative="1" as="geometry">
            <mxPoint x="300" y="180.5" as="sourcePoint" />
            <mxPoint x="414" y="230" as="targetPoint" />
          </mxGeometry>
        </mxCell>
        <mxCell id="BzE5XlcetlsbnxCQ8cyy-14" value="" style="endArrow=classic;html=1;rounded=0;" parent="1" edge="1">
          <mxGeometry width="50" height="50" relative="1" as="geometry">
            <mxPoint x="300" y="203.5" as="sourcePoint" />
            <mxPoint x="414" y="212" as="targetPoint" />
          </mxGeometry>
        </mxCell>
        <mxCell id="BzE5XlcetlsbnxCQ8cyy-15" value="&lt;b style=&quot;&quot;&gt;&lt;font face=&quot;Courier New&quot;&gt;Put(x=2,P1)&lt;/font&gt;&lt;/b&gt;" style="text;html=1;align=center;verticalAlign=middle;whiteSpace=wrap;rounded=0;" parent="1" vertex="1">
          <mxGeometry x="208" y="271.5" width="81" height="30" as="geometry" />
        </mxCell>
        <mxCell id="BzE5XlcetlsbnxCQ8cyy-16" value="&lt;font face=&quot;Verdana&quot;&gt;x=2&lt;/font&gt;" style="text;html=1;align=center;verticalAlign=middle;whiteSpace=wrap;rounded=0;" parent="1" vertex="1">
          <mxGeometry x="420" y="304.5" width="30" height="30" as="geometry" />
        </mxCell>
        <mxCell id="BzE5XlcetlsbnxCQ8cyy-17" value="" style="endArrow=classic;html=1;rounded=0;entryX=0.233;entryY=0.567;entryDx=0;entryDy=0;entryPerimeter=0;" parent="1" edge="1">
          <mxGeometry width="50" height="50" relative="1" as="geometry">
            <mxPoint x="299" y="287" as="sourcePoint" />
            <mxPoint x="417.98" y="318.51" as="targetPoint" />
          </mxGeometry>
        </mxCell>
        <mxCell id="BzE5XlcetlsbnxCQ8cyy-18" value="&lt;b style=&quot;&quot;&gt;&lt;font face=&quot;Courier New&quot;&gt;Get(x,&lt;/font&gt;&lt;/b&gt;&lt;b style=&quot;border-color: var(--border-color);&quot;&gt;&lt;font style=&quot;border-color: var(--border-color);&quot; face=&quot;Courier New&quot;&gt;P1,y&lt;/font&gt;&lt;/b&gt;&lt;b style=&quot;&quot;&gt;&lt;font face=&quot;Courier New&quot;&gt;)&lt;/font&gt;&lt;/b&gt;" style="text;html=1;align=center;verticalAlign=middle;whiteSpace=wrap;rounded=0;" parent="1" vertex="1">
          <mxGeometry x="207" y="287.5" width="81" height="30" as="geometry" />
        </mxCell>
        <mxCell id="BzE5XlcetlsbnxCQ8cyy-19" value="&lt;font color=&quot;#990000&quot; face=&quot;Verdana&quot;&gt;x=1&lt;/font&gt;" style="text;html=1;align=center;verticalAlign=middle;whiteSpace=wrap;rounded=0;" parent="1" vertex="1">
          <mxGeometry x="420" y="253.5" width="30" height="30" as="geometry" />
        </mxCell>
        <mxCell id="BzE5XlcetlsbnxCQ8cyy-20" value="&lt;font color=&quot;#990000&quot; face=&quot;Verdana&quot;&gt;y&lt;/font&gt;&lt;span style=&quot;color: rgb(153, 0, 0); font-family: Verdana; background-color: initial;&quot;&gt;=1&lt;/span&gt;" style="text;html=1;align=center;verticalAlign=middle;whiteSpace=wrap;rounded=0;" parent="1" vertex="1">
          <mxGeometry x="248" y="304.5" width="60" height="30" as="geometry" />
        </mxCell>
        <mxCell id="BzE5XlcetlsbnxCQ8cyy-28" value="" style="endArrow=none;dashed=1;html=1;dashPattern=1 3;strokeWidth=2;rounded=0;" parent="1" edge="1">
          <mxGeometry width="50" height="50" relative="1" as="geometry">
            <mxPoint x="120" y="250" as="sourcePoint" />
            <mxPoint x="480" y="250" as="targetPoint" />
          </mxGeometry>
        </mxCell>
        <mxCell id="BzE5XlcetlsbnxCQ8cyy-30" value="&lt;font color=&quot;#cc0000&quot;&gt;&lt;b&gt;Result Uncertain&lt;/b&gt;&lt;/font&gt;" style="text;html=1;strokeColor=none;fillColor=none;align=center;verticalAlign=middle;whiteSpace=wrap;rounded=0;" parent="1" vertex="1">
          <mxGeometry x="480" y="253.5" width="110" height="30" as="geometry" />
        </mxCell>
        <mxCell id="BzE5XlcetlsbnxCQ8cyy-32" value="&lt;font style=&quot;font-size: 14px;&quot;&gt;Concurrent Put&lt;/font&gt;" style="text;html=1;strokeColor=none;fillColor=none;align=center;verticalAlign=middle;whiteSpace=wrap;rounded=0;" parent="1" vertex="1">
          <mxGeometry x="118" y="145.5" width="120" height="30" as="geometry" />
        </mxCell>
        <mxCell id="BzE5XlcetlsbnxCQ8cyy-33" value="&lt;font style=&quot;font-size: 14px;&quot;&gt;Concurrent Put and Get&lt;/font&gt;" style="text;html=1;strokeColor=none;fillColor=none;align=center;verticalAlign=middle;whiteSpace=wrap;rounded=0;" parent="1" vertex="1">
          <mxGeometry x="110" y="246.5" width="150" height="30" as="geometry" />
        </mxCell>
        <mxCell id="BzE5XlcetlsbnxCQ8cyy-34" value="Initial Value" style="text;html=1;strokeColor=none;fillColor=none;align=center;verticalAlign=middle;whiteSpace=wrap;rounded=0;" parent="1" vertex="1">
          <mxGeometry x="456" y="127.5" width="74" height="30" as="geometry" />
        </mxCell>
        <mxCell id="BzE5XlcetlsbnxCQ8cyy-35" value="" style="endArrow=classic;html=1;rounded=0;exitX=0;exitY=0.5;exitDx=0;exitDy=0;entryX=0.5;entryY=0;entryDx=0;entryDy=0;" parent="1" source="BzE5XlcetlsbnxCQ8cyy-34" target="BzE5XlcetlsbnxCQ8cyy-4" edge="1">
          <mxGeometry width="50" height="50" relative="1" as="geometry">
            <mxPoint x="570" y="210" as="sourcePoint" />
            <mxPoint x="620" y="160" as="targetPoint" />
          </mxGeometry>
        </mxCell>
        <mxCell id="BzE5XlcetlsbnxCQ8cyy-38" value="" style="endArrow=classic;html=1;rounded=0;curved=1;" parent="1" edge="1">
          <mxGeometry width="50" height="50" relative="1" as="geometry">
            <mxPoint x="296" y="300.5" as="sourcePoint" />
            <mxPoint x="296" y="321.5" as="targetPoint" />
            <Array as="points">
              <mxPoint x="531" y="308.5" />
            </Array>
          </mxGeometry>
        </mxCell>
        <mxCell id="BzE5XlcetlsbnxCQ8cyy-39" value="" style="endArrow=classic;html=1;rounded=0;exitX=0;exitY=0;exitDx=0;exitDy=0;entryX=1;entryY=0.5;entryDx=0;entryDy=0;" parent="1" source="BzE5XlcetlsbnxCQ8cyy-30" target="BzE5XlcetlsbnxCQ8cyy-12" edge="1">
          <mxGeometry width="50" height="50" relative="1" as="geometry">
            <mxPoint x="480" y="240" as="sourcePoint" />
            <mxPoint x="500" y="210" as="targetPoint" />
          </mxGeometry>
        </mxCell>
        <mxCell id="BzE5XlcetlsbnxCQ8cyy-40" value="" style="endArrow=classic;html=1;rounded=0;exitX=0;exitY=1;exitDx=0;exitDy=0;" parent="1" source="BzE5XlcetlsbnxCQ8cyy-30" edge="1">
          <mxGeometry width="50" height="50" relative="1" as="geometry">
            <mxPoint x="490" y="264" as="sourcePoint" />
            <mxPoint x="450" y="300" as="targetPoint" />
          </mxGeometry>
        </mxCell>
      </root>
    </mxGraphModel>
  </diagram>
</mxfile>
